<mxfile host="app.diagrams.net" modified="2023-05-15T05:44:28.619Z" agent="Mozilla/5.0 (Windows NT 10.0; Win64; x64) AppleWebKit/537.36 (KHTML, like Gecko) Chrome/113.0.0.0 Safari/537.36" etag="m_YTjfk9IdjtjxI_ecOy" version="21.2.9" type="device">
  <diagram name="Page-1" id="D8Vl_URc9-n9CDZ59L-_">
    <mxGraphModel dx="1270" dy="539" grid="1" gridSize="10" guides="1" tooltips="1" connect="1" arrows="1" fold="1" page="1" pageScale="1" pageWidth="827" pageHeight="1169" math="0" shadow="0">
      <root>
        <mxCell id="0" />
        <mxCell id="1" parent="0" />
        <mxCell id="vrvisQrk9lShXyxaP80K-27" style="edgeStyle=orthogonalEdgeStyle;rounded=0;orthogonalLoop=1;jettySize=auto;html=1;entryX=1;entryY=0.5;entryDx=0;entryDy=0;" edge="1" parent="1" source="vrvisQrk9lShXyxaP80K-2" target="vrvisQrk9lShXyxaP80K-26">
          <mxGeometry relative="1" as="geometry" />
        </mxCell>
        <mxCell id="vrvisQrk9lShXyxaP80K-2" value="Start" style="strokeWidth=2;html=1;shape=mxgraph.flowchart.start_1;whiteSpace=wrap;fillColor=#A9C4EB;" vertex="1" parent="1">
          <mxGeometry x="590" y="330" width="100" height="60" as="geometry" />
        </mxCell>
        <mxCell id="vrvisQrk9lShXyxaP80K-15" style="edgeStyle=orthogonalEdgeStyle;rounded=0;orthogonalLoop=1;jettySize=auto;html=1;entryX=0.5;entryY=0;entryDx=0;entryDy=0;" edge="1" parent="1" source="vrvisQrk9lShXyxaP80K-6" target="vrvisQrk9lShXyxaP80K-7">
          <mxGeometry relative="1" as="geometry" />
        </mxCell>
        <mxCell id="vrvisQrk9lShXyxaP80K-6" value="Initialize SPI and USART" style="rounded=0;whiteSpace=wrap;html=1;fillColor=#A9C4EB;" vertex="1" parent="1">
          <mxGeometry x="140" y="330" width="120" height="60" as="geometry" />
        </mxCell>
        <mxCell id="vrvisQrk9lShXyxaP80K-17" style="edgeStyle=orthogonalEdgeStyle;rounded=0;orthogonalLoop=1;jettySize=auto;html=1;entryX=0.5;entryY=0;entryDx=0;entryDy=0;" edge="1" parent="1" source="vrvisQrk9lShXyxaP80K-7" target="vrvisQrk9lShXyxaP80K-9">
          <mxGeometry relative="1" as="geometry" />
        </mxCell>
        <mxCell id="vrvisQrk9lShXyxaP80K-7" value="Start the HCSR04 Sensor" style="rounded=0;whiteSpace=wrap;html=1;fillColor=#A9C4EB;" vertex="1" parent="1">
          <mxGeometry x="140" y="430" width="120" height="60" as="geometry" />
        </mxCell>
        <mxCell id="vrvisQrk9lShXyxaP80K-19" style="edgeStyle=orthogonalEdgeStyle;rounded=0;orthogonalLoop=1;jettySize=auto;html=1;entryX=0.5;entryY=0;entryDx=0;entryDy=0;" edge="1" parent="1" source="vrvisQrk9lShXyxaP80K-8" target="vrvisQrk9lShXyxaP80K-10">
          <mxGeometry relative="1" as="geometry" />
        </mxCell>
        <mxCell id="vrvisQrk9lShXyxaP80K-37" value="No" style="edgeLabel;html=1;align=center;verticalAlign=middle;resizable=0;points=[];" vertex="1" connectable="0" parent="vrvisQrk9lShXyxaP80K-19">
          <mxGeometry x="-0.7529" y="-1" relative="1" as="geometry">
            <mxPoint x="11" as="offset" />
          </mxGeometry>
        </mxCell>
        <mxCell id="vrvisQrk9lShXyxaP80K-24" style="edgeStyle=orthogonalEdgeStyle;rounded=0;orthogonalLoop=1;jettySize=auto;html=1;entryX=0;entryY=0.5;entryDx=0;entryDy=0;" edge="1" parent="1" source="vrvisQrk9lShXyxaP80K-8" target="vrvisQrk9lShXyxaP80K-11">
          <mxGeometry relative="1" as="geometry" />
        </mxCell>
        <mxCell id="vrvisQrk9lShXyxaP80K-38" value="Yes" style="edgeLabel;html=1;align=center;verticalAlign=middle;resizable=0;points=[];" vertex="1" connectable="0" parent="vrvisQrk9lShXyxaP80K-24">
          <mxGeometry x="-0.7459" y="1" relative="1" as="geometry">
            <mxPoint x="2" y="-9" as="offset" />
          </mxGeometry>
        </mxCell>
        <mxCell id="vrvisQrk9lShXyxaP80K-8" value="Distance&lt;br&gt;&amp;nbsp;&amp;lt; 10 cm" style="strokeWidth=2;html=1;shape=mxgraph.flowchart.decision;whiteSpace=wrap;fillColor=#A9C4EB;" vertex="1" parent="1">
          <mxGeometry x="150" y="660" width="100" height="100" as="geometry" />
        </mxCell>
        <mxCell id="vrvisQrk9lShXyxaP80K-18" style="edgeStyle=orthogonalEdgeStyle;rounded=0;orthogonalLoop=1;jettySize=auto;html=1;entryX=0.5;entryY=0;entryDx=0;entryDy=0;entryPerimeter=0;" edge="1" parent="1" source="vrvisQrk9lShXyxaP80K-9" target="vrvisQrk9lShXyxaP80K-8">
          <mxGeometry relative="1" as="geometry" />
        </mxCell>
        <mxCell id="vrvisQrk9lShXyxaP80K-9" value="&amp;nbsp;get the calculated distance" style="shape=parallelogram;perimeter=parallelogramPerimeter;whiteSpace=wrap;html=1;fixedSize=1;fillColor=#A9C4EB;" vertex="1" parent="1">
          <mxGeometry x="140" y="530" width="120" height="60" as="geometry" />
        </mxCell>
        <mxCell id="vrvisQrk9lShXyxaP80K-22" style="edgeStyle=orthogonalEdgeStyle;rounded=0;orthogonalLoop=1;jettySize=auto;html=1;entryX=0;entryY=0.5;entryDx=0;entryDy=0;exitX=0;exitY=0.5;exitDx=0;exitDy=0;" edge="1" parent="1" source="vrvisQrk9lShXyxaP80K-10" target="vrvisQrk9lShXyxaP80K-7">
          <mxGeometry relative="1" as="geometry">
            <Array as="points">
              <mxPoint x="105" y="820" />
              <mxPoint x="105" y="460" />
            </Array>
          </mxGeometry>
        </mxCell>
        <mxCell id="vrvisQrk9lShXyxaP80K-10" value="Display COOKING,&lt;br&gt;Turn off all LED and Buzzer, and set servo&lt;br&gt;to 40 degree" style="shape=parallelogram;perimeter=parallelogramPerimeter;whiteSpace=wrap;html=1;fixedSize=1;fillColor=#A9C4EB;" vertex="1" parent="1">
          <mxGeometry x="125" y="790" width="150" height="60" as="geometry" />
        </mxCell>
        <mxCell id="vrvisQrk9lShXyxaP80K-25" style="edgeStyle=orthogonalEdgeStyle;rounded=0;orthogonalLoop=1;jettySize=auto;html=1;entryX=0;entryY=0.5;entryDx=0;entryDy=0;entryPerimeter=0;" edge="1" parent="1" source="vrvisQrk9lShXyxaP80K-11" target="vrvisQrk9lShXyxaP80K-23">
          <mxGeometry relative="1" as="geometry" />
        </mxCell>
        <mxCell id="vrvisQrk9lShXyxaP80K-11" value="Get the&lt;br&gt;magnet input" style="shape=parallelogram;perimeter=parallelogramPerimeter;whiteSpace=wrap;html=1;fixedSize=1;fillColor=#A9C4EB;" vertex="1" parent="1">
          <mxGeometry x="280" y="680" width="120" height="60" as="geometry" />
        </mxCell>
        <mxCell id="vrvisQrk9lShXyxaP80K-30" style="edgeStyle=orthogonalEdgeStyle;rounded=0;orthogonalLoop=1;jettySize=auto;html=1;entryX=0.5;entryY=1;entryDx=0;entryDy=0;" edge="1" parent="1" source="vrvisQrk9lShXyxaP80K-23" target="vrvisQrk9lShXyxaP80K-29">
          <mxGeometry relative="1" as="geometry" />
        </mxCell>
        <mxCell id="vrvisQrk9lShXyxaP80K-39" value="No" style="edgeLabel;html=1;align=center;verticalAlign=middle;resizable=0;points=[];" vertex="1" connectable="0" parent="vrvisQrk9lShXyxaP80K-30">
          <mxGeometry x="-0.5735" y="1" relative="1" as="geometry">
            <mxPoint x="16" as="offset" />
          </mxGeometry>
        </mxCell>
        <mxCell id="vrvisQrk9lShXyxaP80K-33" style="edgeStyle=orthogonalEdgeStyle;rounded=0;orthogonalLoop=1;jettySize=auto;html=1;entryX=0.5;entryY=1;entryDx=0;entryDy=0;" edge="1" parent="1" source="vrvisQrk9lShXyxaP80K-23" target="vrvisQrk9lShXyxaP80K-32">
          <mxGeometry relative="1" as="geometry" />
        </mxCell>
        <mxCell id="vrvisQrk9lShXyxaP80K-40" value="Yes" style="edgeLabel;html=1;align=center;verticalAlign=middle;resizable=0;points=[];" vertex="1" connectable="0" parent="vrvisQrk9lShXyxaP80K-33">
          <mxGeometry x="-0.8699" relative="1" as="geometry">
            <mxPoint y="-10" as="offset" />
          </mxGeometry>
        </mxCell>
        <mxCell id="vrvisQrk9lShXyxaP80K-23" value="If there &lt;br&gt;is Magnet" style="strokeWidth=2;html=1;shape=mxgraph.flowchart.decision;whiteSpace=wrap;fillColor=#A9C4EB;" vertex="1" parent="1">
          <mxGeometry x="445.25" y="660" width="100" height="100" as="geometry" />
        </mxCell>
        <mxCell id="vrvisQrk9lShXyxaP80K-28" style="edgeStyle=orthogonalEdgeStyle;rounded=0;orthogonalLoop=1;jettySize=auto;html=1;entryX=1;entryY=0.5;entryDx=0;entryDy=0;" edge="1" parent="1" source="vrvisQrk9lShXyxaP80K-26" target="vrvisQrk9lShXyxaP80K-6">
          <mxGeometry relative="1" as="geometry" />
        </mxCell>
        <mxCell id="vrvisQrk9lShXyxaP80K-26" value="Initialize Input &amp;amp; Output Pins" style="rounded=0;whiteSpace=wrap;html=1;fillColor=#A9C4EB;" vertex="1" parent="1">
          <mxGeometry x="360" y="330" width="120" height="60" as="geometry" />
        </mxCell>
        <mxCell id="vrvisQrk9lShXyxaP80K-35" style="edgeStyle=orthogonalEdgeStyle;rounded=0;orthogonalLoop=1;jettySize=auto;html=1;entryX=1;entryY=0.75;entryDx=0;entryDy=0;" edge="1" parent="1" source="vrvisQrk9lShXyxaP80K-29" target="vrvisQrk9lShXyxaP80K-7">
          <mxGeometry relative="1" as="geometry">
            <Array as="points">
              <mxPoint x="495" y="475" />
            </Array>
          </mxGeometry>
        </mxCell>
        <mxCell id="vrvisQrk9lShXyxaP80K-29" value="Display READY,&lt;br&gt;Turn on green LED&lt;br&gt;&amp;nbsp;and turn on Buzzer, &lt;br&gt;and set servo&lt;br&gt;to 40 degree" style="shape=parallelogram;perimeter=parallelogramPerimeter;whiteSpace=wrap;html=1;fixedSize=1;fillColor=#A9C4EB;" vertex="1" parent="1">
          <mxGeometry x="414" y="520" width="162.5" height="80" as="geometry" />
        </mxCell>
        <mxCell id="vrvisQrk9lShXyxaP80K-36" style="edgeStyle=orthogonalEdgeStyle;rounded=0;orthogonalLoop=1;jettySize=auto;html=1;entryX=1;entryY=0.25;entryDx=0;entryDy=0;" edge="1" parent="1" source="vrvisQrk9lShXyxaP80K-32" target="vrvisQrk9lShXyxaP80K-7">
          <mxGeometry relative="1" as="geometry">
            <Array as="points">
              <mxPoint x="687" y="445" />
            </Array>
          </mxGeometry>
        </mxCell>
        <mxCell id="vrvisQrk9lShXyxaP80K-32" value="Display OPENED,&lt;br&gt;Turn on green LED&lt;br&gt;&amp;nbsp;and turn on Buzzer, &lt;br&gt;and set servo&lt;br&gt;to 130 degree" style="shape=parallelogram;perimeter=parallelogramPerimeter;whiteSpace=wrap;html=1;fixedSize=1;fillColor=#A9C4EB;" vertex="1" parent="1">
          <mxGeometry x="605.25" y="520" width="162.5" height="80" as="geometry" />
        </mxCell>
      </root>
    </mxGraphModel>
  </diagram>
</mxfile>
